Coordinates
version=1
nRows=26
nColumns=22
inDegrees=yes

Units are S.I. units (second, meters, Newtons, ...)
If the header above contains a line with 'inDegrees', this indicates whether rotational values are in degrees (yes) or radians (no).

endheader
time	pelvis_tilt	pelvis_list	pelvis_rotation	pelvis_tx	pelvis_ty	pelvis_tz	hip_flexion_r	hip_adduction_r	hip_rotation_r	knee_angle_r	ankle_angle_r	subtalar_angle_r	hip_flexion_l	hip_adduction_l	hip_rotation_l	knee_angle_l	ankle_angle_l	subtalar_angle_l	lumbar_extension	lumbar_bending	lumbar_rotation
      0.01000000	      2.26428871	     -0.97989762	      2.38508110	      0.14332067	      1.08755190	      1.17505134	     -4.00135333	      2.67326167	     -5.62133914	     -9.06413111	     12.25877051	     -2.19234768	     -3.74225110	     -0.94353992	     -0.27365050	    -11.24783187	     12.94298343	     -2.48651039	     -3.27387833	     -0.51052245	     -5.56581009
      0.02000000	      2.25971248	     -0.97732095	      2.38996511	      0.14357444	      1.08751499	      1.17503341	     -4.00990873	      2.67158871	     -5.61773730	     -9.06831169	     12.25995779	     -2.19303112	     -3.75018175	     -0.94019729	     -0.27373029	    -11.25142595	     12.94417758	     -2.48719509	     -3.26349059	     -0.50165459	     -5.56507898
      0.03000000	      2.26212550	     -0.97615021	      2.39038528	      0.14390969	      1.08748114	      1.17502655	     -4.05109762	      2.67468058	     -5.57087972	     -9.03372785	     12.28807081	     -2.20834130	     -3.78315081	     -0.93821482	     -0.26224734	    -11.23232436	     12.96503346	     -2.50583531	     -3.25376237	     -0.48932388	     -5.57238446
      0.04000000	      2.25729742	     -0.97263059	      2.39579191	      0.14422268	      1.08744136	      1.17501432	     -4.06192523	      2.67191542	     -5.56870082	     -9.03918086	     12.28913711	     -2.20913884	     -3.79361869	     -0.93477138	     -0.26386454	    -11.23679801	     12.96548812	     -2.50650634	     -3.24130438	     -0.48175662	     -5.57199645
      0.05000000	      2.25085891	     -0.96707895	      2.39647593	      0.14459270	      1.08740021	      1.17500885	     -4.08988841	      2.66811856	     -5.56033022	     -9.01334889	     12.31289937	     -2.21499451	     -3.81802013	     -0.92917077	     -0.27218175	    -11.21745335	     12.97662878	     -2.51273532	     -3.21914316	     -0.47580049	     -5.57971903
      0.06000000	      2.24632552	     -0.96424337	      2.40097380	      0.14489444	      1.08736773	      1.17501332	     -4.10025198	      2.66675686	     -5.55718468	     -9.01873393	     12.31457401	     -2.21588017	     -3.82753990	     -0.92745260	     -0.27174584	    -11.22290101	     12.97712845	     -2.51346815	     -3.20947893	     -0.47066094	     -5.57787714
      0.07000000	      2.23978459	     -0.96550837	      2.39730830	      0.14521517	      1.08733565	      1.17503478	     -4.12257412	      2.67025270	     -5.55581384	     -8.99571434	     12.33621283	     -2.22134205	     -3.84572195	     -0.92951155	     -0.27333217	    -11.21114121	     12.98690519	     -2.51908471	     -3.19353869	     -0.46115184	     -5.56865623
      0.08000000	      2.23399303	     -0.96489889	      2.39778786	      0.14546759	      1.08731459	      1.17506877	     -4.12958484	      2.67154543	     -5.55640945	     -8.99874076	     12.33713079	     -2.22204947	     -3.85208667	     -0.93113799	     -0.27349610	    -11.21437088	     12.98762285	     -2.51982734	     -3.18746222	     -0.45775621	     -5.56600677
      0.09000000	      2.21929227	     -0.98107417	      2.39038926	      0.14572683	      1.08728661	      1.17512404	     -4.13496492	      2.69042417	     -5.58482453	     -8.98060055	     12.34521545	     -2.22530602	     -3.85764726	     -0.95055189	     -0.28357053	    -11.20138262	     12.99707693	     -2.52440263	     -3.16925220	     -0.43626336	     -5.53812152
      0.10000000	      2.20156277	     -1.00529190	      2.38080281	      0.14594710	      1.08725541	      1.17520164	     -4.12511120	      2.71747372	     -5.61916719	     -8.98081659	     12.33878254	     -2.22624439	     -3.85182644	     -0.97954959	     -0.29500589	    -11.20022880	     13.00924522	     -2.52838095	     -3.15089156	     -0.40651871	     -5.51400981
      0.11000000	      2.17433487	     -1.03412003	      2.37793030	      0.14614957	      1.08720983	      1.17529418	     -4.10147809	      2.75089840	     -5.66115922	     -8.98627398	     12.32897456	     -2.22385506	     -3.83026541	     -1.01574490	     -0.30866026	    -11.20569502	     13.02912457	     -2.53048291	     -3.12388680	     -0.37638837	     -5.49322335
      0.12000000	      2.13378572	     -1.06579287	      2.38012073	      0.14633260	      1.08713878	      1.17537648	     -4.05615969	      2.78627571	     -5.70817781	     -9.00486313	     12.32325734	     -2.21776611	     -3.78779674	     -1.05436460	     -0.31565921	    -11.22116424	     13.06255182	     -2.52812739	     -3.08448565	     -0.34062546	     -5.48261708
      0.13000000	      2.12584801	     -1.06313896	      2.38062672	      0.14651967	      1.08711477	      1.17544604	     -4.05784190	      2.78744787	     -5.70836834	     -9.00631030	     12.32321501	     -2.21771173	     -3.78922110	     -1.05519765	     -0.31558265	    -11.22238476	     13.06268030	     -2.52808840	     -3.08731082	     -0.33971307	     -5.48254243
      0.14000000	      2.05341162	     -1.09299095	      2.40962908	      0.14667233	      1.08697407	      1.17549944	     -3.95865312	      2.82046267	     -5.78080566	     -9.06420566	     12.34570141	     -2.20880134	     -3.69422800	     -1.09315486	     -0.29775624	    -11.26554754	     13.12852999	     -2.50370481	     -3.01500688	     -0.30835545	     -5.50158178
      0.15000000	      2.01149193	     -1.08845953	      2.42331298	      0.14689188	      1.08688733	      1.17555195	     -3.91545792	      2.81838700	     -5.80989384	     -9.08692480	     12.36951953	     -2.20955043	     -3.66089555	     -1.09171877	     -0.28271475	    -11.26467365	     13.13969364	     -2.48001830	     -2.97129470	     -0.31397801	     -5.49678051
      0.16000000	      2.00487812	     -1.08542762	      2.43493015	      0.14712847	      1.08685003	      1.17559791	     -3.91918499	      2.82008732	     -5.80920795	     -9.09458937	     12.37085511	     -2.20992089	     -3.66545350	     -1.09366710	     -0.28419396	    -11.26602746	     13.14131854	     -2.47975768	     -2.96804806	     -0.31323680	     -5.49414496
      0.17000000	      1.99864977	     -1.08258961	      2.45003903	      0.14737148	      1.08680931	      1.17563942	     -3.92160796	      2.82242787	     -5.80938183	     -9.10660744	     12.37482843	     -2.21083210	     -3.67141252	     -1.09656684	     -0.28469113	    -11.26544327	     13.14482993	     -2.47938376	     -2.96471118	     -0.31288929	     -5.49145848
      0.18000000	      1.99009391	     -1.07982189	      2.47720103	      0.14759206	      1.08675093	      1.17565503	     -3.90092847	      2.82231112	     -5.86364969	     -9.15686344	     12.43883749	     -2.22673784	     -3.67571567	     -1.09795921	     -0.24950983	    -11.26092280	     13.18108711	     -2.47011262	     -2.96541913	     -0.31198302	     -5.50208424
      0.19000000	      1.97915697	     -1.07008044	      2.50149079	      0.14783461	      1.08670282	      1.17567042	     -3.89000262	      2.81599844	     -5.88398988	     -9.18669982	     12.46222149	     -2.23970462	     -3.68085773	     -1.09188982	     -0.22535056	    -11.25197799	     13.18362697	     -2.46139877	     -2.95897032	     -0.31909849	     -5.52384793
      0.20000000	      1.97259827	     -1.06655458	      2.51476658	      0.14809153	      1.08666538	      1.17570175	     -3.89355162	      2.81697812	     -5.88073814	     -9.19690831	     12.46299370	     -2.24035262	     -3.68787222	     -1.09330072	     -0.22695450	    -11.25171527	     13.18409084	     -2.46131917	     -2.95526686	     -0.31946528	     -5.52434709
      0.21000000	      1.96479433	     -1.06185470	      2.52825115	      0.14833309	      1.08662909	      1.17574434	     -3.88536332	      2.81666965	     -5.88184390	     -9.22551519	     12.48316331	     -2.24628212	     -3.70511291	     -1.09353091	     -0.22177432	    -11.22682865	     13.18775397	     -2.46046877	     -2.95692024	     -0.32408958	     -5.55145442
      0.22000000	      1.95760970	     -1.05820707	      2.53985621	      0.14859426	      1.08659470	      1.17576956	     -3.88956403	      2.81653836	     -5.88069126	     -9.23366496	     12.48611201	     -2.24722711	     -3.71215326	     -1.09367103	     -0.22183505	    -11.22662865	     13.18758912	     -2.46036129	     -2.95359558	     -0.32398475	     -5.55180540
      0.23000000	      1.95058550	     -1.03909558	      2.56533423	      0.14884813	      1.08655990	      1.17578782	     -3.88770992	      2.80013127	     -5.91563972	     -9.25613359	     12.54299458	     -2.26476120	     -3.73354536	     -1.07728845	     -0.18372973	    -11.19615643	     13.17886474	     -2.45659523	     -2.95749580	     -0.34501371	     -5.58889514
      0.24000000	      1.94037610	     -1.03622787	      2.57590204	      0.14909688	      1.08652792	      1.17583631	     -3.88930128	      2.80196057	     -5.91415397	     -9.26117694	     12.54302885	     -2.26534597	     -3.73885669	     -1.07959582	     -0.18761922	    -11.19071408	     13.17976898	     -2.45659512	     -2.95864418	     -0.34869136	     -5.59307567
      0.25000000	      1.92526298	     -1.03091852	      2.58141885	      0.14936303	      1.08649174	      1.17588824	     -3.88783561	      2.79995578	     -5.92000509	     -9.26314319	     12.55296790	     -2.26859206	     -3.74978671	     -1.07839964	     -0.19324105	    -11.16653894	     13.18395659	     -2.45464110	     -2.95448754	     -0.35171956	     -5.61827982
      0.26000000	      1.90950394	     -1.02438136	      2.59180616	      0.14962202	      1.08645067	      1.17593992	     -3.88750276	      2.79771610	     -5.93065887	     -9.26185507	     12.56999344	     -2.27302054	     -3.75426763	     -1.07593455	     -0.18967601	    -11.15208432	     13.18863051	     -2.44919076	     -2.95274641	     -0.35848320	     -5.62845703
